
<svg width="100" height="100" viewBox="0 0 100 100" fill="none" xmlns="http://www.w3.org/2000/svg">
<path d="M85 50.5C85 69.5538 69.5538 85 50.5 85C31.4462 85 16 69.5538 16 50.5C16 31.4462 31.4462 16 50.5 16C69.5538 16 85 31.4462 85 50.5ZM28.363 50.5C28.363 62.726 38.274 72.637 50.5 72.637C62.726 72.637 72.637 62.726 72.637 50.5C72.637 38.274 62.726 28.363 50.5 28.363C38.274 28.363 28.363 38.274 28.363 50.5Z" fill="#002147"/>
<path d="M87 50.5C87 70.6584 70.6584 87 50.5 87C30.3416 87 14 70.6584 14 50.5C14 30.3416 30.3416 14 50.5 14C70.6584 14 87 30.3416 87 50.5ZM14.9656 50.5C14.9656 70.1251 30.8749 86.0344 50.5 86.0344C70.1251 86.0344 86.0344 70.1251 86.0344 50.5C86.0344 30.8749 70.1251 14.9656 50.5 14.9656C30.8749 14.9656 14.9656 30.8749 14.9656 50.5Z" fill="#002147"/>
</svg>
